# xmcd
#
# Track frame offsets:
#	150
#	16823
#	30504
#	41895
#	53579
#	65707
#	77163
#	92036
#	104941
#	120586
#	135976
#	146601
#
# Disc length: 2133 seconds
#
# Revision: 0
# Processed by: cddbd v1.5.2PL0 Copyright (c) Steve Scherf et al.
# Submitted via: EasyCDDAExtractor 16.0.6.1
#
DISCID=a208530c
DTITLE=Συλλογικός δίσκος - Τα ιστορικά ρεμπέτικα
DYEAR=1997
DGENRE=Ρεμπέτικη
TTITLE0=Τσιτσάνης Βασίλης-Νίνου Μαρίκα - Συννεφιασμένη Κυριακή [Β. Τσιτσάνης]
TTITLE1=Μοσχονάς Οδυσσέας - Πριν το χάραμα μονάχος [Ι. Παπαϊωάννου]
TTITLE2=Ευσταθίου Δημήτρης - Τα κεριά τα σπαρματσέτα [Π. Σκορτέλης]
TTITLE3=Μπίνης Τάκης - Μιά Κυριακή σε γνώρισα [Β. Τσιτσάνης]
TTITLE4=Ζαγοραίος Σπύρος - Κάτω στα Λεμονάδικα [Β. Παπάζογλου]
TTITLE5=Γαβαλάς Πάνος - Ηλιοβασίλεμα [Γ. Λαύκας-Χ. Βασιλειάδης]
TTITLE6=Νίνου Μαρίκα - Τα καβουράκια [Β. Τσιτσάνης]
TTITLE7=Χρηστάκης - Βάλε με, φως μου, βάλε με [Γ. Ροβερτάκης]
TTITLE8=Χατζοπούλου Μαριάννα - Το φτωχοκάλυβο [Μ. Χιώτης]
TTITLE9=Μιχαλόπουλος Πάνος - Δυό πονηροί μου 'κάναν μπλόκο [Κ. Βίρβος-Γ. Μανήσ
TTITLE9=αλης]
TTITLE10=Εσκενάζυ Ρόζα - Χόρεψέ μου τσιφτετέλι [Δ. Μανήσαλης-Ρ. Εσκενάζη]
TTITLE11=Αποστόλου Δημήτρης - Ένας μάγκας στο Βοτανικό [Περιστέρης-Χρυσίνης-Βα
TTITLE11=σιλειάδης-Περπινιάδης]
EXTD=
EXTT0=
EXTT1=
EXTT2=
EXTT3=
EXTT4=
EXTT5=
EXTT6=
EXTT7=
EXTT8=
EXTT9=
EXTT10=
EXTT11=
PLAYORDER=
